<svg width="342" height="225" viewBox="0 0 342 225" fill="none" xmlns="http://www.w3.org/2000/svg">
<g clip-path="url(#clip0_33_56)">
<path d="M33.781 208.497C33.9286 213.744 34.8516 218.946 36.5229 223.948C36.5599 224.064 36.6011 224.178 36.6411 224.294H46.8726C46.8618 224.19 46.8507 224.074 46.8399 223.948C46.1578 216.479 50.0551 171.561 54.7578 163.787C54.3458 164.418 32.9877 184.764 33.781 208.497Z" fill="#E6E6E6"/>
<path d="M34.5486 223.948C34.6342 224.064 34.7232 224.18 34.8143 224.294H42.4902C42.4321 224.195 42.3646 224.079 42.2864 223.948C41.0185 221.768 37.2654 215.252 33.7816 208.497C30.0393 201.237 26.603 193.702 26.8924 190.975C26.8027 191.59 24.2119 210.34 34.5486 223.948Z" fill="#E6E6E6"/>
<path d="M158.965 216.268C159.04 218.934 159.509 221.577 160.358 224.118C160.377 224.177 160.398 224.235 160.418 224.294H165.616C165.611 224.241 165.605 224.182 165.6 224.118C165.253 220.323 167.233 197.503 169.622 193.553C169.413 193.873 158.562 204.21 158.965 216.268Z" fill="#E6E6E6"/>
<path d="M159.355 224.118C159.398 224.177 159.444 224.236 159.49 224.294H163.39C163.36 224.244 163.326 224.185 163.286 224.118C162.642 223.011 160.735 219.7 158.965 216.268C157.064 212.58 155.318 208.752 155.465 207.366C155.42 207.679 154.103 217.205 159.355 224.118Z" fill="#E6E6E6"/>
<path d="M128.19 64.2802L114.959 73.2434L123.192 74.0833L134.66 64.8412L128.19 64.2802Z" fill="#3F3D56"/>
<path d="M76.4231 217.321L84.3814 217.321L88.1675 188.087L76.4216 188.087L76.4231 217.321Z" fill="#9F616A"/>
<path d="M74.3929 214.847L90.0658 214.846H90.0664C92.7153 214.847 95.2556 215.849 97.1287 217.633C99.0018 219.416 100.054 221.836 100.054 224.358V224.668L74.3934 224.668L74.3929 214.847Z" fill="#2F2E41"/>
<path d="M71.4197 112.903C71.4197 112.903 67.9706 116.616 73.6818 131.09L72.6758 210.455L91.1838 210.111L95.2521 171.397L102.659 114.904L71.4197 112.903Z" fill="#2F2E41"/>
<path d="M52.9411 100.375C51.8476 100.372 50.7983 99.9635 50.0159 99.2359C49.2335 98.5084 48.7796 97.5191 48.7506 96.4781L47.882 65.3051L62.7435 38.4533C63.0809 37.8486 63.5747 37.3358 64.1781 36.9635C64.7816 36.5911 65.4747 36.3715 66.1921 36.3253L77.5179 35.6328L76.5399 98.4689L53.3094 100.36C53.1862 100.37 53.0634 100.375 52.9411 100.375Z" fill="#BECFFF"/>
<path d="M109.007 123.876L108.804 123.846C85.1274 120.407 67.2604 117.11 67.0827 117.077L66.8607 117.036L73.0674 102.659C73.0184 101.157 71.6749 58.9694 74.2468 46.8485C76.7366 35.1148 88.4728 33.1919 89.8102 33.011L91.1531 28.7734L108.119 37.1811L111.078 46.8797L111.679 73.4612L109.007 123.876Z" fill="#3F3D56"/>
<path d="M85.6919 83.6334C74.7613 83.6334 65.8685 72.3147 65.8685 58.4022C65.8685 44.4897 74.7613 33.171 85.6919 33.171C96.6226 33.171 105.515 44.4897 105.515 58.4022C105.515 72.3147 96.6226 83.6334 85.6919 83.6334ZM85.6919 35.6412C76.1915 35.6412 68.4622 45.8518 68.4622 58.4022C68.4622 70.9526 76.1915 81.1632 85.6919 81.1632C95.1924 81.1632 102.922 70.9526 102.922 58.4022C102.922 45.8518 95.1924 35.6412 85.6919 35.6412Z" fill="#BECFFF"/>
<path d="M119.225 69.1652C118.461 69.165 117.705 69.3154 117.005 69.607C116.305 69.8985 115.676 70.3249 115.158 70.8593H86.6413L76.1959 72.9768L77.9109 85.5742L115.068 77.9637C115.683 78.6254 116.463 79.1297 117.335 79.4307C118.208 79.7317 119.146 79.8198 120.063 79.6869C120.98 79.554 121.848 79.2043 122.587 78.6698C123.326 78.1354 123.913 77.4331 124.294 76.6271C124.675 75.8212 124.837 74.9372 124.767 74.056C124.697 73.1747 124.396 72.3243 123.892 71.5822C123.388 70.8402 122.697 70.2302 121.882 69.808C121.066 69.3858 120.153 69.1648 119.225 69.1652Z" fill="#9F616A"/>
<path d="M117.131 26.9884C122.498 21.8769 122.498 13.5895 117.131 8.478C111.764 3.36651 103.062 3.36651 97.6952 8.47801C92.3281 13.5895 92.3281 21.8769 97.6952 26.9884C103.062 32.0999 111.764 32.0999 117.131 26.9884Z" fill="#9F616A"/>
<path d="M94.4874 7.26936L93.8211 5.99223L97.1736 4.40588C97.1736 4.40588 100.872 -1.32514 107.564 0.285406C114.257 1.89595 117.268 2.85982 117.268 2.85982L120.612 4.46229L118.933 6.05266L121.944 7.01657L119.933 7.96837L122.273 9.24953L121.013 15.8172C121.013 15.8172 118.921 10.8359 114.898 12.7395C110.875 14.6431 103.516 11.7554 103.516 11.7554L97.1229 23.5387C97.1229 23.5387 95.804 19.4081 93.4525 20.5095C93.4525 20.5095 87.445 11.3979 94.4874 7.26936Z" fill="#2F2E41"/>
<path d="M213.905 87.8496L213.317 77.3572L207.389 72.7697L203.954 82.4858L184.745 106.885C183.837 107.024 182.99 107.407 182.303 107.99C181.616 108.573 181.12 109.331 180.871 110.175C180.623 111.018 180.633 111.912 180.902 112.749C181.17 113.587 181.684 114.335 182.384 114.903C183.084 115.471 183.941 115.836 184.852 115.955C185.763 116.074 186.691 115.943 187.526 115.575C188.361 115.208 189.068 114.62 189.563 113.882C190.059 113.144 190.322 112.286 190.321 111.41C190.321 111.349 190.314 111.289 190.312 111.228L213.905 87.8496Z" fill="#FFB7B7"/>
<path d="M225.321 220.089L220.779 220.088L218.617 203.401L225.322 203.402L225.321 220.089Z" fill="#FFB7B7"/>
<path d="M226.48 224.282L211.832 224.282V224.105C211.832 222.665 212.433 221.284 213.502 220.266C214.571 219.248 216.021 218.676 217.533 218.676H217.534L226.48 218.676L226.48 224.282Z" fill="#2F2E41"/>
<path d="M246.441 220.089L241.899 220.088L239.738 203.401L246.442 203.402L246.441 220.089Z" fill="#FFB7B7"/>
<path d="M247.6 224.282L232.952 224.282V224.105C232.953 222.665 233.553 221.284 234.622 220.266C235.692 219.248 237.142 218.676 238.654 218.676H238.654L247.6 218.676L247.6 224.282Z" fill="#2F2E41"/>
<path d="M241.64 44.0173C243.563 36.4545 245.193 27.9246 241.565 20.9592C239.049 16.1262 229.739 14.4987 224.402 16.2398C219.065 17.9809 215.206 22.7047 213.509 27.8551C211.812 33.0055 212.01 38.5555 212.749 43.9097C222.564 43.7301 232.38 43.5505 241.64 44.0173Z" fill="#2F2E41"/>
<path d="M230.566 42.6795C236.113 39.7918 238.151 33.1687 235.119 27.8862C232.087 22.6038 225.133 20.6624 219.586 23.5501C214.04 26.4377 212.001 33.0609 215.033 38.3433C218.065 43.6258 225.02 45.5671 230.566 42.6795Z" fill="#FFB8B8"/>
<path d="M239.069 30.8693C239.105 29.0347 238.754 27.2118 238.036 25.5091C237.318 23.8063 236.248 22.2583 234.889 20.9571C233.531 19.6559 231.912 18.628 230.128 17.9346C228.344 17.2412 226.432 16.8963 224.505 16.9205C222.579 16.9447 220.677 17.3374 218.913 18.0754C217.149 18.8134 215.559 19.8815 214.237 21.2164C212.915 22.5512 211.888 24.1255 211.218 25.8458C210.547 27.566 210.246 29.397 210.334 31.2301C220.13 31.2499 229.927 31.2697 239.069 30.8693Z" fill="#2F2E41"/>
<path d="M206.697 98.7879C206.697 98.7879 204.834 124.552 205.845 132.412C206.856 140.271 217.861 208.982 217.861 208.982L226.163 208.967L228.627 127.997L238.444 209.754L247.029 208.904L251.899 128.93C251.899 128.93 251.135 98.9893 244.928 95.987L206.697 98.7879Z" fill="#2F2E41"/>
<path d="M219.718 124.327C213.621 124.326 207.611 122.94 202.188 120.285L202.07 120.227L206.658 91.2298L206.36 56.6707C206.352 55.7221 206.543 54.7815 206.92 53.9038C207.298 53.026 207.855 52.2286 208.56 51.5582C209.265 50.8878 210.102 50.3577 211.024 49.999C211.946 49.6402 212.934 49.4599 213.93 49.4686L238.552 49.6838C239.642 49.6934 240.719 49.9164 241.715 50.3392C242.71 50.7619 243.604 51.3753 244.34 52.1411C245.076 52.9069 245.639 53.8088 245.994 54.7907C246.348 55.7725 246.487 56.8134 246.4 57.8484L244.096 85.5534L251.716 108.04L250.392 109.717C246.821 114.253 242.19 117.935 236.866 120.471C231.542 123.007 225.671 124.327 219.718 124.327V124.327Z" fill="#3F3D56"/>
<path d="M203.886 79.2835L206.467 54.2103L207.296 53.0865C207.864 52.3169 208.586 51.6616 209.42 51.1584C210.255 50.6552 211.186 50.314 212.159 50.1543C213.133 49.9945 214.13 50.0195 215.093 50.2277C216.056 50.4359 216.967 50.8232 217.773 51.3674L218.484 51.8477L217.782 77.2572L203.886 79.2835Z" fill="#3F3D56"/>
<path d="M309.608 201.781C316.278 200.026 319.124 209.672 312.471 211.483C305.802 213.238 302.955 203.591 309.608 201.781Z" fill="#3F3D56"/>
<path d="M272.626 214.196C279.296 212.442 282.143 222.088 275.49 223.899C268.82 225.653 265.973 216.007 272.626 214.196Z" fill="#3F3D56"/>
<path d="M257.659 112.457L257.762 112.43L274.943 156.851L277.208 156.245L259.904 111.505C259.867 110.815 259.583 110.159 259.099 109.644C258.616 109.129 257.963 108.788 257.247 108.676C248.655 107.382 245.173 114.645 245.173 114.645L245.207 114.694L262.772 160.109L265.037 159.503L247.989 115.424C253.179 110.535 257.659 112.457 257.659 112.457Z" fill="#3F3D56"/>
<path d="M277.35 216.695C274.898 216.675 272.518 215.91 270.555 214.511C268.592 213.113 267.149 211.154 266.437 208.92C263.158 198.699 255.421 174.209 254.396 167.562C253.062 158.909 260.582 156.448 260.75 156.395C260.952 156.33 263.976 155.524 268.161 154.409C275.275 152.513 286.025 149.647 286.421 149.478C288.086 148.927 289.854 148.709 291.612 148.838C293.37 148.967 295.082 149.441 296.639 150.23C298.243 151.034 299.66 152.14 300.802 153.482C301.943 154.823 302.787 156.372 303.281 158.034L314.347 195.528C315.03 197.827 314.838 200.281 313.806 202.459C312.774 204.636 310.968 206.396 308.706 207.429C300.168 211.335 287.645 216.547 277.518 216.694C277.462 216.695 277.405 216.695 277.35 216.695Z" fill="#BECFFF"/>
<path d="M255.832 110.921L250.269 79.9738L249.649 69.5295L240.655 72.335L248.24 112.858C247.934 113.647 247.861 114.5 248.03 115.326C248.199 116.151 248.603 116.916 249.198 117.537C249.793 118.159 250.556 118.612 251.403 118.849C252.25 119.085 253.149 119.095 254.002 118.877C254.855 118.66 255.628 118.223 256.238 117.615C256.848 117.007 257.27 116.251 257.459 115.43C257.648 114.608 257.596 113.753 257.309 112.958C257.022 112.163 256.511 111.458 255.832 110.921V110.921Z" fill="#FFB7B7"/>
<path d="M251.791 78.0327L237.754 77.3056L234.456 52.082L234.777 51.8168C235.567 51.1639 236.486 50.666 237.479 50.3519C238.472 50.0377 239.52 49.9134 240.563 49.9861C241.607 50.0588 242.625 50.327 243.56 50.7755C244.494 51.2239 245.326 51.8437 246.008 52.5993L246.658 53.3185L246.667 53.364L251.791 78.0327Z" fill="#3F3D56"/>
<path d="M308.952 201.243L294.605 154.997L260.869 164.077L260.667 163.398L295.108 154.129L295.212 154.463L309.663 201.044L308.952 201.243Z" fill="#3F3D56"/>
<path d="M54.0119 97.0591L52.4842 65.3346L68.1325 36.2027L68.792 36.5241L53.2338 65.4891L54.7522 97.0267L54.0119 97.0591Z" fill="#3F3D56"/>
<path d="M78.0935 87.9357L74.8323 78.6973L74.0435 47.9017L75.433 43.5323C75.9331 41.9597 76.7615 40.4995 77.8684 39.2391C78.9753 37.9786 80.338 36.944 81.8749 36.1972C83.4117 35.4504 85.091 35.0068 86.8122 34.8929C88.5334 34.779 90.261 34.9972 91.8915 35.5345C93.522 36.0717 95.0219 36.9169 96.3012 38.0194C97.5805 39.122 98.6129 40.4591 99.3365 41.9508C100.06 43.4424 100.46 45.0578 100.513 46.7002C100.565 48.3426 100.269 49.9782 99.6415 51.5089L92.194 69.6845L92.5725 70.3842L108.708 70.2598L114.439 80.0851L78.0935 87.9357Z" fill="#3F3D56"/>
<path d="M180.881 153.678L180.869 153.68L162.986 157.09L147.602 162.99C147.403 163.066 147.19 163.105 146.976 163.103C146.761 163.101 146.549 163.058 146.352 162.978C146.155 162.898 145.976 162.782 145.826 162.636C145.676 162.491 145.557 162.318 145.477 162.129C145.458 162.084 145.442 162.039 145.427 161.993L134.189 126.153C134.071 125.782 134.103 125.382 134.28 125.032C134.457 124.683 134.765 124.409 135.143 124.266L150.809 118.258L150.82 118.255L168.704 114.846L184.088 108.945C184.489 108.791 184.939 108.796 185.337 108.957C185.736 109.119 186.05 109.424 186.212 109.807C186.231 109.851 186.248 109.897 186.262 109.943L197.501 145.782C197.619 146.154 197.586 146.554 197.409 146.903C197.233 147.253 196.925 147.526 196.546 147.67L180.881 153.678Z" fill="#E5E5E5"/>
<path d="M161.69 129.604C157.589 128.226 153.351 127.018 149.093 126.015L148.879 125.965L151.041 132.859L162.054 129.726L161.69 129.604ZM151.21 132.561L149.246 126.298C153.298 127.259 157.331 128.405 161.242 129.708L151.21 132.561ZM183.18 138.923C181.271 137.895 179.334 136.91 177.371 135.97C176.829 135.71 176.286 135.454 175.741 135.202C172.415 133.661 169.039 132.256 165.612 130.988L165.572 130.973L151.688 134.922L155.479 147.013L183.437 139.061L183.18 138.923ZM155.648 146.715L152 135.083L165.562 131.226C168.866 132.449 172.133 133.805 175.363 135.293C175.923 135.551 176.482 135.813 177.038 136.079C178.983 137.006 180.904 137.978 182.799 138.993L155.648 146.715ZM183.18 138.923C181.271 137.895 179.334 136.91 177.371 135.97C176.829 135.71 176.286 135.454 175.741 135.202C172.415 133.661 169.039 132.256 165.612 130.988L165.572 130.973L151.688 134.922L155.479 147.013L183.437 139.061L183.18 138.923ZM155.648 146.715L152 135.083L165.562 131.226C168.866 132.449 172.133 133.805 175.363 135.293C175.923 135.551 176.482 135.813 177.038 136.079C178.983 137.006 180.904 137.978 182.799 138.993L155.648 146.715ZM161.69 129.604C157.589 128.226 153.351 127.018 149.093 126.015L148.879 125.965L151.041 132.859L162.054 129.726L161.69 129.604ZM151.21 132.561L149.246 126.298C153.298 127.259 157.331 128.405 161.242 129.708L151.21 132.561ZM161.69 129.604C157.589 128.226 153.351 127.018 149.093 126.015L148.879 125.965L151.041 132.859L162.054 129.726L161.69 129.604ZM151.21 132.561L149.246 126.298C153.298 127.259 157.331 128.405 161.242 129.708L151.21 132.561ZM183.18 138.923C181.271 137.895 179.334 136.91 177.371 135.97C176.829 135.71 176.286 135.454 175.741 135.202C172.415 133.661 169.039 132.256 165.612 130.988L165.572 130.973L151.688 134.922L155.479 147.013L183.437 139.061L183.18 138.923ZM155.648 146.715L152 135.083L165.562 131.226C168.866 132.449 172.133 133.805 175.363 135.293C175.923 135.551 176.482 135.813 177.038 136.079C178.983 137.006 180.904 137.978 182.799 138.993L155.648 146.715ZM144.214 152.464L144.286 152.693L153.791 149.99L154.834 153.313L145.328 156.017L145.4 156.246L155.146 153.474L153.96 149.692L144.214 152.464ZM157.959 154.921L158.687 157.244L158.921 157.154L158.272 155.082L195.337 144.54L195.265 144.311L157.959 154.921ZM193.504 138.695L193.432 138.466L156.126 149.076L157.312 152.858L194.618 142.248L194.546 142.018L157.481 152.56L156.439 149.237L193.504 138.695ZM165.798 128.412C160.117 126.333 154.281 124.66 148.339 123.407L147.611 121.086L147.377 121.176L148.111 123.514L148.357 123.656C154.276 124.908 160.089 126.577 165.748 128.65L165.788 128.664L188.346 122.248L188.275 122.019L165.798 128.412ZM148.562 133.314L139.057 136.018L139.128 136.247L148.875 133.475L145.271 121.983L145.037 122.073L148.562 133.314ZM188.993 124.311L169.162 129.952L169.485 130.081C172.526 131.3 175.56 132.647 178.586 134.123C179.016 134.333 179.446 134.546 179.875 134.761C182.011 135.829 184.131 136.957 186.233 138.144L186.467 138.2L192.785 136.403L192.713 136.173L186.41 137.966C184.33 136.79 182.23 135.671 180.11 134.609C179.687 134.396 179.262 134.185 178.837 133.978C175.875 132.529 172.898 131.2 169.904 129.99L189.065 124.541L188.993 124.311ZM146.047 158.309L146.119 158.538L155.624 155.835L156.347 158.141L156.581 158.051L155.793 155.537L146.047 158.309ZM139.775 138.31L139.847 138.539L149.353 135.836L153.001 147.468L143.495 150.172L143.567 150.401L153.313 147.629L149.522 135.538L139.775 138.31ZM161.69 129.604C157.589 128.226 153.351 127.018 149.093 126.015L148.879 125.965L151.041 132.859L162.054 129.726L161.69 129.604ZM151.21 132.561L149.246 126.298C153.298 127.259 157.331 128.405 161.242 129.708L151.21 132.561ZM183.18 138.923C181.271 137.895 179.334 136.91 177.371 135.97C176.829 135.71 176.286 135.454 175.741 135.202C172.415 133.661 169.039 132.256 165.612 130.988L165.572 130.973L151.688 134.922L155.479 147.013L183.437 139.061L183.18 138.923ZM155.648 146.715L152 135.083L165.562 131.226C168.866 132.449 172.133 133.805 175.363 135.293C175.923 135.551 176.482 135.813 177.038 136.079C178.983 137.006 180.904 137.978 182.799 138.993L155.648 146.715ZM161.69 129.604C157.589 128.226 153.351 127.018 149.093 126.015L148.879 125.965L151.041 132.859L162.054 129.726L161.69 129.604ZM151.21 132.561L149.246 126.298C153.298 127.259 157.331 128.405 161.242 129.708L151.21 132.561ZM183.18 138.923C181.271 137.895 179.334 136.91 177.371 135.97C176.829 135.71 176.286 135.454 175.741 135.202C172.415 133.661 169.039 132.256 165.612 130.988L165.572 130.973L151.688 134.922L155.479 147.013L183.437 139.061L183.18 138.923ZM155.648 146.715L152 135.083L165.562 131.226C168.866 132.449 172.133 133.805 175.363 135.293C175.923 135.551 176.482 135.813 177.038 136.079C178.983 137.006 180.904 137.978 182.799 138.993L155.648 146.715Z" fill="white"/>
<path d="M164.884 130.684C165.794 133.586 162.303 141.622 162.303 141.622C162.303 141.622 154.757 136.725 153.847 133.823C153.41 132.429 153.572 130.927 154.298 129.647C155.023 128.367 156.253 127.414 157.717 126.998C159.181 126.581 160.758 126.736 162.102 127.427C163.446 128.118 164.446 129.29 164.884 130.684H164.884Z" fill="#BECFFF"/>
<path d="M161.816 131.307C161.965 131.782 161.963 132.289 161.81 132.763C161.656 133.237 161.359 133.657 160.955 133.97C160.551 134.283 160.059 134.475 159.54 134.521C159.022 134.568 158.501 134.467 158.042 134.231C157.584 133.995 157.21 133.635 156.966 133.197C156.723 132.759 156.621 132.261 156.674 131.768C156.728 131.275 156.933 130.808 157.265 130.426C157.598 130.044 158.041 129.764 158.54 129.622C158.871 129.528 159.219 129.496 159.563 129.53C159.907 129.564 160.241 129.662 160.545 129.818C160.849 129.975 161.118 130.187 161.336 130.442C161.554 130.698 161.717 130.992 161.816 131.307Z" fill="white"/>
<path d="M163.048 145.477C163.906 145.477 164.601 144.815 164.601 143.998C164.601 143.182 163.906 142.52 163.048 142.52C162.191 142.52 161.496 143.182 161.496 143.998C161.496 144.815 162.191 145.477 163.048 145.477Z" fill="#BECFFF"/>
<path d="M179.988 124.558L169.199 127.627C169.185 127.631 169.172 127.634 169.158 127.635L171.621 117.766C171.636 117.704 171.667 117.648 171.712 117.602C171.757 117.556 171.814 117.523 171.878 117.505C171.941 117.487 172.008 117.485 172.072 117.5C172.136 117.515 172.195 117.545 172.243 117.589L177.439 122.264L177.688 122.488L179.988 124.558Z" fill="white"/>
<path opacity="0.2" d="M179.988 124.558L176.305 125.606L177.329 122.59L177.402 122.373L177.439 122.264L177.688 122.488L179.988 124.558Z" fill="black"/>
<path d="M185.996 122.849L176.664 125.504L177.688 122.488L177.761 122.27L179.096 118.34C179.122 118.278 179.161 118.223 179.211 118.176C179.261 118.13 179.321 118.095 179.387 118.072C179.452 118.049 179.522 118.04 179.592 118.044C179.661 118.049 179.729 118.067 179.791 118.098C179.807 118.108 179.823 118.118 179.837 118.129L185.996 122.849Z" fill="white"/>
</g>
<defs>
<clipPath id="clip0_33_56">
<rect width="342" height="225" fill="white"/>
</clipPath>
</defs>
</svg>
